Coordinates
version=1
nRows=24
nColumns=38
inDegrees=no

Units are S.I. units (second, meters, Newtons, ...)
If the header above contains a line with 'inDegrees', this indicates whether rotational values are in degrees (yes) or radians (no).

endheader
time	pelvis_tilt	pelvis_list	pelvis_rotation	pelvis_tx	pelvis_ty	pelvis_tz	hip_flexion_r	hip_adduction_r	hip_rotation_r	knee_angle_r	ankle_angle_r	subtalar_angle_r	mtp_angle_r	hip_flexion_l	hip_adduction_l	hip_rotation_l	knee_angle_l	ankle_angle_l	subtalar_angle_l	mtp_angle_l	lumbar_extension	lumbar_bending	lumbar_rotation	arm_flex_r	arm_add_r	arm_rot_r	elbow_flex_r	pro_sup_r	wrist_flex_r	wrist_dev_r	arm_flex_l	arm_add_l	arm_rot_l	elbow_flex_l	pro_sup_l	wrist_flex_l	wrist_dev_l
30	0.139402	1.22583	1.48788	0.752636	-0.212989	1.0143	0.432329	0.00637464	-0.00701987	0.336667	-0.218766	0	0	0.287843	-0.101486	-0.0694012	0.105635	-0.384739	0	0	0.0084758	0.0332183	0.195014	0.198109	-0.514905	1.41136	0.553229	0.105578	0	0	0.422626	-0.237816	1.5708	0.309814	0.202988	0	0
30.01	0.140399	1.22773	1.48675	0.753012	-0.21426	1.01423	0.435047	0.00664204	-0.00583919	0.342624	-0.217862	0	0	0.290047	-0.10246	-0.068037	0.111454	-0.382022	0	0	-0.00463009	0.0309548	0.19907	0.200015	-0.514958	1.40146	0.552112	0.107657	0	0	0.430005	-0.236251	1.5708	0.308775	0.206568	0	0
30.02	0.140306	1.22849	1.48687	0.753382	-0.215615	1.01403	0.439275	0.00671527	-0.00489122	0.34915	-0.216826	0	0	0.293754	-0.10302	-0.066108	0.11756	-0.379065	0	0	-0.0170821	0.0283184	0.203538	0.201003	-0.514881	1.38934	0.550644	0.110659	0	0	0.437558	-0.234451	1.5708	0.307926	0.209768	0	0
30.03	0.142486	1.23533	1.48467	0.753732	-0.217671	1.01416	0.438563	0.00707098	-0.00378669	0.357558	-0.215343	0	0	0.292433	-0.103907	-0.0638852	0.125431	-0.375182	0	0	-0.0363666	0.0262628	0.206566	0.206238	-0.516183	1.37935	0.55098	0.114194	0	0	0.447178	-0.232666	1.5708	0.307075	0.212488	0	0
30.04	0.146126	1.24524	1.48104	0.754066	-0.219819	1.01458	0.43454	0.00741783	-0.00355415	0.365259	-0.213586	0	0	0.288086	-0.104957	-0.0623525	0.133673	-0.370456	0	0	-0.0601728	0.0241576	0.209192	0.213176	-0.518263	1.3695	0.552686	0.118712	0	0	0.45809	-0.230589	1.5708	0.305657	0.215994	0	0
30.05	0.150933	1.25597	1.47646	0.754376	-0.221991	1.01504	0.429623	0.00785584	-0.00397271	0.372952	-0.211742	0	0	0.282972	-0.106252	-0.0613574	0.14198	-0.365648	0	0	-0.0855331	0.0223413	0.211085	0.221149	-0.520588	1.36073	0.554888	0.123346	0	0	0.469228	-0.228335	1.5708	0.303641	0.220394	0	0
30.06	0.156198	1.26677	1.47157	0.754675	-0.224205	1.01549	0.42479	0.00828206	-0.00465912	0.381037	-0.209755	0	0	0.278008	-0.107609	-0.0610352	0.150615	-0.360868	0	0	-0.111502	0.0206444	0.212622	0.229646	-0.522948	1.35253	0.557272	0.127959	0	0	0.480402	-0.226109	1.5708	0.30174	0.224683	0	0
30.07	0.162074	1.27727	1.4666	0.754911	-0.226545	1.01593	0.420589	0.00851944	-0.00570659	0.389649	-0.207882	0	0	0.273932	-0.108846	-0.0605698	0.160057	-0.356087	0	0	-0.137427	0.0192959	0.213806	0.238222	-0.525521	1.3444	0.559991	0.132295	0	0	0.491692	-0.223925	1.5708	0.300634	0.228037	0	0
30.08	0.168045	1.28674	1.46126	0.755226	-0.229002	1.01629	0.417655	0.00898585	-0.00566403	0.398276	-0.206244	0	0	0.271191	-0.110185	-0.0602919	0.169827	-0.35128	0	0	-0.16222	0.0181439	0.215437	0.246533	-0.527995	1.33597	0.562622	0.136205	0	0	0.502987	-0.222003	1.5708	0.30055	0.23034	0	0
30.09	0.173472	1.29422	1.45613	0.755604	-0.23151	1.01643	0.416798	0.00959953	-0.00456317	0.406623	-0.204981	0	0	0.270707	-0.111619	-0.0602982	0.179726	-0.346818	0	0	-0.184206	0.0171574	0.217176	0.254497	-0.529919	1.32873	0.564515	0.139374	0	0	0.513625	-0.220411	1.5708	0.300809	0.232609	0	0
30.1	0.178473	1.3001	1.45179	0.7559	-0.233988	1.01636	0.417666	0.00978237	-0.00447719	0.415163	-0.203886	0	0	0.272376	-0.113001	-0.0604749	0.190451	-0.342137	0	0	-0.20391	0.0163795	0.218857	0.261358	-0.531768	1.32095	0.5662	0.142259	0	0	0.523688	-0.218964	1.5708	0.301472	0.235345	0	0
30.11	0.182434	1.30433	1.44841	0.756217	-0.236496	1.01607	0.420679	0.00974063	-0.00493796	0.424278	-0.202728	0	0	0.276255	-0.114421	-0.060711	0.201981	-0.337201	0	0	-0.221413	0.0155191	0.220497	0.267542	-0.533476	1.31263	0.567923	0.144935	0	0	0.533176	-0.217982	1.5708	0.302441	0.237991	0	0
30.12	0.185648	1.30811	1.44562	0.756536	-0.239087	1.01564	0.424655	0.00958418	-0.00565658	0.434042	-0.201478	0	0	0.28108	-0.115809	-0.0609795	0.214508	-0.331832	0	0	-0.23821	0.0145149	0.221964	0.273786	-0.535379	1.30437	0.570109	0.147649	0	0	0.542558	-0.217176	1.5708	0.303276	0.240178	0	0
30.13	0.189005	1.30907	1.44219	0.756755	-0.241668	1.0148	0.43279	0.00923235	-0.00655123	0.446884	-0.196295	0	0	0.291059	-0.117063	-0.0629079	0.232937	-0.318265	0	0	-0.259055	0.00825875	0.243792	0.227656	-0.5466	1.14218	0.591138	0.261207	0	0	0.553238	-0.203396	1.5708	0.291113	0.31565	0	0
30.14	0.186097	1.31088	1.4449	0.757165	-0.244218	1.01422	0.439391	0.00865901	-0.00741102	0.456879	-0.195429	0	0	0.297044	-0.117765	-0.061804	0.243604	-0.315248	0	0	-0.272821	0.00637688	0.244683	0.236263	-0.546133	1.14563	0.591045	0.258684	0	0	0.569505	-0.203205	1.5708	0.295803	0.293555	0	0
30.15	0.185146	1.31288	1.44483	0.757475	-0.246799	1.01351	0.446508	0.00802695	-0.00808446	0.468575	-0.194208	0	0	0.303599	-0.118196	-0.0614104	0.256635	-0.31028	0	0	-0.287396	0.00454072	0.243769	0.24674	-0.547239	1.14796	0.592267	0.256795	0	0	0.577506	-0.204284	1.5708	0.29704	0.281759	0	0
30.16	0.182462	1.31466	1.44616	0.757776	-0.249352	1.01271	0.453925	0.00717568	-0.00810204	0.480169	-0.19261	0	0	0.310517	-0.118153	-0.061189	0.270287	-0.304331	0	0	-0.301569	0.00229918	0.2428	0.256806	-0.548386	1.14947	0.593868	0.255898	0	0	0.585141	-0.205543	1.5708	0.298045	0.27517	0	0
30.17	0.17579	1.31546	1.45131	0.758158	-0.252071	1.01168	0.464371	0.00532886	-0.00694013	0.495713	-0.187947	0	0	0.3205	-0.117415	-0.061696	0.288834	-0.292289	0	0	-0.315632	-0.00492131	0.257064	0.23974	-0.552761	1.08818	0.603271	0.29329	0	0	0.596618	-0.194444	1.5708	0.28828	0.300147	0	0
30.18	0.169766	1.32701	1.45646	0.758789	-0.255197	1.01126	0.463012	0.00255778	-0.00599541	0.509633	-0.187365	0	0	0.317668	-0.115642	-0.0605768	0.301772	-0.289989	0	0	-0.329913	-0.0161314	0.27871	0.242888	-0.555867	1.11945	0.596866	0.250646	0	0	0.600569	-0.165012	1.56028	0.250377	0.288281	0	0
30.19	0.16408	1.32844	1.46031	0.759108	-0.257678	1.01037	0.47053	0.0016131	-0.00406572	0.520632	-0.18469	0	0	0.325175	-0.114848	-0.05988	0.315168	-0.283839	0	0	-0.343936	-0.0208832	0.284754	0.242501	-0.559653	1.1009	0.602813	0.253541	0	0	0.609399	-0.158982	1.55493	0.243803	0.30165	0	0
30.2	0.156572	1.3286	1.46613	0.759407	-0.26033	1.00921	0.480812	0.000325393	-0.00198845	0.534216	-0.181672	0	0	0.335928	-0.113913	-0.058708	0.333109	-0.276172	0	0	-0.35671	-0.0250094	0.288062	0.243478	-0.563205	1.08232	0.609455	0.260045	0	0	0.617437	-0.155657	1.54643	0.240571	0.31484	0	0
30.21	0.15012	1.32883	1.47063	0.759691	-0.263122	1.00798	0.491356	-0.000489127	0.000919948	0.547763	-0.179029	0	0	0.347001	-0.113472	-0.057615	0.352028	-0.268728	0	0	-0.369398	-0.0283491	0.28995	0.24664	-0.566314	1.06752	0.615163	0.267802	0	0	0.624787	-0.153587	1.53663	0.238498	0.32625	0	0
30.22	0.144212	1.32787	1.47599	0.759732	-0.265877	1.00652	0.503291	-0.00212487	0.00143886	0.562358	-0.175824	0	0	0.360579	-0.112531	-0.0558266	0.373283	-0.259984	0	0	-0.38091	-0.0306665	0.290158	0.249557	-0.569136	1.05254	0.620431	0.276865	0	0	0.631266	-0.151653	1.52459	0.236497	0.33874	0	0
30.23	0.139155	1.3262	1.4815	0.75959	-0.26862	1.00487	0.515297	-0.00396132	0.000652779	0.57625	-0.172098	0	0	0.375143	-0.111135	-0.0523146	0.394425	-0.251145	0	0	-0.391648	-0.0320255	0.288731	0.253579	-0.571402	1.04036	0.624476	0.285873	0	0	0.636996	-0.150155	1.51203	0.234777	0.350708	0	0
